<svg width="32" height="32" viewBox="0 0 32 32" fill="none" xmlns="http://www.w3.org/2000/svg">
<circle cx="16" cy="16" r="16" fill="#006A4D"/>
<path d="M25.25 14.5C24.84 14.5 24.5 14.84 24.5 15.25H22.96C22.8158 13.9122 22.288 12.6447 21.44 11.6L22.53 10.51L22.54 10.52C22.83 10.81 23.31 10.81 23.6 10.52C23.89 10.23 23.89 9.75 23.6 9.46L22.54 8.4C22.3989 8.26052 22.2084 8.1823 22.01 8.1823C21.8116 8.1823 21.6211 8.26052 21.48 8.4C21.19 8.69 21.19 9.16 21.47 9.45L20.38 10.54C19.3359 9.6992 18.0727 9.17519 16.74 9.03V7.5H16.75C17.16 7.5 17.5 7.16 17.5 6.75C17.5 6.34 17.16 6 16.75 6H15.25C14.84 6 14.5 6.34 14.5 6.75C14.5 7.16 14.83 7.49 15.24 7.5V9.05C13.87 9.19 12.62 9.74 11.6 10.56L10.51 9.47L10.52 9.46C10.81 9.17 10.81 8.69 10.52 8.4C10.3789 8.26052 10.1884 8.1823 9.99 8.1823C9.79157 8.1823 9.60114 8.26052 9.46 8.4L8.4 9.46C8.11 9.75 8.11 10.23 8.4 10.52C8.69 10.81 9.16 10.81 9.45 10.53L10.54 11.62C9.6984 12.6588 9.17722 13.9201 9.04 15.25H7.5C7.5 14.84 7.16 14.5 6.75 14.5C6.34 14.5 6 14.84 6 15.25V16.75C6 17.16 6.34 17.5 6.75 17.5C7.16 17.5 7.5 17.16 7.5 16.75H9.04C9.19 18.12 9.73 19.36 10.54 20.38L9.45 21.47C9.38043 21.4017 9.29807 21.3477 9.20763 21.3112C9.11719 21.2747 9.02045 21.2564 8.92293 21.2573C8.82541 21.2583 8.72903 21.2784 8.6393 21.3166C8.54957 21.3548 8.46825 21.4103 8.4 21.48C8.11 21.77 8.11 22.25 8.4 22.54L9.46 23.6C9.75 23.89 10.23 23.89 10.52 23.6C10.81 23.31 10.81 22.83 10.52 22.54L10.51 22.53L11.6 21.44C12.62 22.26 13.86 22.8 15.23 22.95V24.5C14.82 24.51 14.49 24.84 14.49 25.25C14.49 25.66 14.83 26 15.24 26H16.74C17.15 26 17.49 25.66 17.49 25.25C17.49 24.84 17.15 24.5 16.74 24.5H16.73V22.96C18.1 22.82 19.35 22.27 20.37 21.45L21.46 22.54C21.17 22.83 21.18 23.3 21.47 23.59C21.76 23.88 22.24 23.88 22.53 23.59L23.59 22.53C23.88 22.24 23.88 21.76 23.59 21.47C23.4489 21.3305 23.2584 21.2523 23.06 21.2523C22.8616 21.2523 22.6711 21.3305 22.53 21.47L22.52 21.48L21.43 20.39C22.2757 19.3439 22.8032 18.0771 22.95 16.74H24.49C24.49 17.15 24.83 17.49 25.24 17.49C25.65 17.49 25.99 17.15 25.99 16.74V15.24C26 14.84 25.66 14.5 25.25 14.5ZM17.75 12C18.3 12 18.75 12.45 18.75 13C18.75 13.55 18.3 14 17.75 14C17.2 14 16.75 13.55 16.75 13C16.75 12.45 17.2 12 17.75 12ZM16 17C15.45 17 15 16.55 15 16C15 15.45 15.45 15 16 15C16.55 15 17 15.45 17 16C17 16.55 16.55 17 16 17ZM14.25 12C14.8 12 15.25 12.45 15.25 13C15.25 13.55 14.8 14 14.25 14C13.7 14 13.25 13.55 13.25 13C13.25 12.45 13.7 12 14.25 12ZM12.5 17C11.95 17 11.5 16.55 11.5 16C11.5 15.45 11.95 15 12.5 15C13.05 15 13.5 15.45 13.5 16C13.5 16.55 13.05 17 12.5 17ZM14.25 20C13.7 20 13.25 19.55 13.25 19C13.25 18.45 13.7 18 14.25 18C14.8 18 15.25 18.45 15.25 19C15.25 19.55 14.8 20 14.25 20ZM17.75 20C17.2 20 16.75 19.55 16.75 19C16.75 18.45 17.2 18 17.75 18C18.3 18 18.75 18.45 18.75 19C18.75 19.55 18.3 20 17.75 20ZM18.5 16C18.5 15.45 18.95 15 19.5 15C20.05 15 20.5 15.45 20.5 16C20.5 16.55 20.05 17 19.5 17C18.95 17 18.5 16.55 18.5 16Z" fill="white"/>
</svg>
