<svg width="32" height="32" viewBox="0 0 32 32" fill="none" xmlns="http://www.w3.org/2000/svg">
<circle cx="16" cy="16" r="16" fill="#006A4D"/>
<path d="M27 20.06C27 20.29 27 20.5 26.96 20.7C26.78 18.14 24.64 16.11 22 16.11C21.63 16.11 21.27 16.16 20.92 16.23C20.96 16.5 21 16.73 21 17C21 19.35 19.31 21.32 17.07 21.81C17.42 24.05 19.31 25.79 21.65 25.96C21.43 26 21.22 26 21 26C18.92 26 17.07 24.94 16 23.34C15.4497 24.1605 14.7055 24.8325 13.8333 25.2965C12.9611 25.7605 11.9879 26.0021 11 26C10.78 26 10.57 26 10.35 25.96C12.69 25.79 14.57 24.06 14.93 21.81C12.68 21.32 11 19.35 11 17C11 16.73 11.04 16.5 11.07 16.23C10.73 16.16 10.37 16.11 10 16.11C8.74514 16.1063 7.53535 16.5775 6.61349 17.4289C5.69162 18.2802 5.12594 19.4488 5.03 20.7C5 20.5 5 20.29 5 20.06C5 16.85 7.59 14.24 10.81 14.14C10.4104 13.461 10.1514 12.7086 10.0483 11.9275C9.94532 11.1465 10.0004 10.3526 10.2103 9.59327C10.4202 8.8339 10.7806 8.12448 11.2702 7.50719C11.7597 6.88991 12.3684 6.37735 13.06 6C11.81 6.9 11 8.34 11 10C11 11.35 11.56 12.59 12.47 13.5C13.38 12.59 14.62 12.04 16 12.04C17.37 12.04 18.62 12.59 19.5 13.5C20.43 12.59 21 11.35 21 10C21 8.34 20.18 6.9 18.94 6C19.6316 6.37735 20.2403 6.88991 20.7298 7.50719C21.2194 8.12448 21.5798 8.8339 21.7897 9.59327C21.9996 10.3526 22.0547 11.1465 21.9517 11.9275C21.8486 12.7086 21.5896 13.461 21.19 14.14C24.42 14.24 27 16.85 27 20.06ZM13.27 14.11C14.0823 14.6389 15.0307 14.9205 16 14.9205C16.9693 14.9205 17.9177 14.6389 18.73 14.11C18 13.45 17.06 13.03 16 13.03C14.94 13.03 14 13.45 13.27 14.11ZM16 18.47C16.82 18.47 17.5 17.8 17.5 17C17.5 16.6022 17.342 16.2206 17.0607 15.9393C16.7794 15.658 16.3978 15.5 16 15.5C15.6022 15.5 15.2206 15.658 14.9393 15.9393C14.658 16.2206 14.5 16.6022 14.5 17C14.5 17.8 15.17 18.47 16 18.47ZM14.97 20.79C14.87 18.9 13.71 17.29 12.05 16.55C12.03 16.7 12 16.84 12 17C12 18.82 13.27 20.34 14.97 20.79ZM19.96 16.55C19.1259 16.9182 18.4088 17.5083 17.8868 18.2559C17.3649 19.0035 17.0581 19.8801 17 20.79C18.73 20.34 20 18.82 20 17C20 16.84 19.97 16.7 19.96 16.55Z" fill="white"/>
</svg>
