<svg width="373" height="373" viewBox="0 0 373 373" fill="none" xmlns="http://www.w3.org/2000/svg">
<g clip-path="url(#clip0)">
<path d="M120.16 102.4C115.199 127.41 112.548 152.824 112.24 178.32H178.32V106.32C158.876 106.091 139.459 104.783 120.16 102.4Z" fill="#006A4D"/>
<path d="M48.64 86.88C43.307 85.12 37.973 83.253 32.64 81.28C13.041 109.97 1.922 143.602 0.559998 178.32H96.16C96.442 152.025 99.12 125.809 104.16 100C85.35 97.028 66.791 92.642 48.64 86.88Z" fill="#006A4D"/>
<path d="M43.2 68.24C48.48 70.16 54.08 72 59.84 73.68C75.597 78.227 91.63 81.754 107.84 84.24C112.779 64.037 120.336 44.565 130.32 26.32C134.438 18.869 139.288 11.848 144.8 5.36C104.946 14.593 69.242 36.69 43.2 68.24Z" fill="#006A4D"/>
<path d="M276.48 194.32C276.197 220.615 273.52 246.83 268.48 272.64C287.29 275.61 305.85 279.996 324 285.76C329.333 287.52 334.667 289.387 340 291.36C359.599 262.67 370.718 229.039 372.08 194.32H276.48Z" fill="#006A4D"/>
<path d="M112.24 194.32C112.543 219.843 115.194 245.283 120.16 270.32C139.458 267.911 158.874 266.575 178.32 266.32V194.32H112.24Z" fill="#006A4D"/>
<path d="M96.32 194.32H0.320007C1.77701 229.07 13.007 262.705 32.72 291.36C38.053 289.387 43.387 287.52 48.72 285.76C66.897 279.994 85.483 275.609 104.32 272.64C99.28 246.831 96.602 220.615 96.32 194.32Z" fill="#006A4D"/>
<path d="M130.32 346.32C120.336 328.075 112.779 308.603 107.84 288.4C91.624 290.963 75.591 294.57 59.84 299.2C54.08 300.88 48.56 302.72 43.2 304.64C69.242 336.19 104.946 358.287 144.8 367.52C139.272 360.958 134.421 353.856 130.32 346.32Z" fill="#006A4D"/>
<path d="M124.08 286C129.337 310.027 139.228 332.799 153.2 353.04C159.214 361.552 167.544 368.16 177.2 372.08L178.64 372.64V282.32C160.4 282.564 142.187 283.792 124.08 286Z" fill="#006A4D"/>
<path d="M312.8 298.96C297.044 294.411 281.011 290.884 264.8 288.4C259.862 308.604 252.304 328.075 242.32 346.32C238.205 353.772 233.354 360.794 227.84 367.28C267.694 358.047 303.398 335.95 329.44 304.4C324.16 302.48 318.56 300.64 312.8 298.96Z" fill="#006A4D"/>
<path d="M194.32 282.32V372.64L195.76 372.08C205.416 368.16 213.746 361.552 219.76 353.04C233.836 332.847 243.836 310.103 249.2 286.08C230.988 283.832 212.668 282.577 194.32 282.32Z" fill="#006A4D"/>
<path d="M194.32 194.32V266.32C213.764 266.547 233.181 267.856 252.48 270.24C257.441 245.23 260.092 219.816 260.4 194.32H194.32Z" fill="#006A4D"/>
<path d="M252.48 102.32C233.183 104.731 213.766 106.067 194.32 106.32V178.32H260.4C260.097 152.797 257.446 127.357 252.48 102.32Z" fill="#006A4D"/>
<path d="M219.44 19.6C213.426 11.088 205.096 4.48 195.44 0.56L194.32 0V90.32C212.56 90.076 230.773 88.848 248.88 86.64C243.526 62.59 233.525 39.817 219.44 19.6Z" fill="#006A4D"/>
<path d="M227.84 5.12C233.365 11.684 238.216 18.786 242.32 26.32C252.304 44.565 259.862 64.036 264.8 84.24C281.015 81.673 297.048 78.066 312.8 73.44C318.56 71.76 324.08 69.92 329.44 68C303.398 36.45 267.694 14.353 227.84 5.12Z" fill="#006A4D"/>
<path d="M339.92 81.28C334.587 83.253 329.253 85.12 323.92 86.88C305.744 92.648 287.157 97.034 268.32 100C273.36 125.81 276.037 152.025 276.32 178.32H372.32C370.863 143.57 359.633 109.935 339.92 81.28Z" fill="#006A4D"/>
<path d="M176.88 0.56C167.341 4.533 159.128 11.136 153.2 19.6C139.124 39.793 129.124 62.538 123.76 86.56C141.866 88.796 160.079 90.051 178.32 90.32V0L176.88 0.56Z" fill="#006A4D"/>
</g>
<defs>
<clipPath id="clip0">
<rect width="372.64" height="372.64" fill="white"/>
</clipPath>
</defs>
</svg>
