<svg width="32" height="32" viewBox="0 0 32 32" fill="none" xmlns="http://www.w3.org/2000/svg">
<circle cx="16" cy="16" r="16" fill="#006A4D"/>
<path d="M7.83331 23H12.5V24.1667H7.83331V23Z" fill="white"/>
<path d="M16.5833 23.5833C16.4959 23.5833 16.4097 23.5636 16.3309 23.5257C16.2522 23.4879 16.1829 23.4328 16.1283 23.3646L13.97 20.6667H7.83331V19.5H14.25C14.3374 19.5001 14.4236 19.5197 14.5024 19.5576C14.5811 19.5955 14.6504 19.6505 14.705 19.7187L16.5407 22.0124L19.598 17.4262C19.6497 17.3486 19.7194 17.2846 19.801 17.2394C19.8827 17.1943 19.9739 17.1694 20.0672 17.1668C20.1604 17.1643 20.253 17.1841 20.337 17.2247C20.421 17.2652 20.494 17.3254 20.55 17.4L22.125 19.5H24.1666V20.6667H21.8333C21.7428 20.6667 21.6534 20.6456 21.5724 20.6051C21.4914 20.5646 21.421 20.5058 21.3666 20.4333L20.1113 18.7592L17.0686 23.3237C17.0177 23.4001 16.9495 23.4634 16.8695 23.5084C16.7896 23.5534 16.7001 23.5789 16.6084 23.5827L16.5833 23.5833Z" fill="white"/>
<path d="M13.0833 16V13.0833H13.6666C14.2852 13.0826 14.8783 12.8365 15.3157 12.3991C15.7531 11.9616 15.9992 11.3686 16 10.75V8.99999H14.25C13.6526 9.00097 13.0787 9.23227 12.6476 9.64574C12.3455 9.09728 11.9019 8.63984 11.3629 8.32107C10.824 8.0023 10.2095 7.83388 9.58331 7.83333H7.83331V9.58333C7.83439 10.5113 8.20349 11.4009 8.85963 12.057C9.51578 12.7132 10.4054 13.0822 11.3333 13.0833H11.9166V16H7.83331V17.1667H16V16H13.0833ZM14.25 10.1667H14.8333V10.75C14.833 11.0593 14.71 11.3559 14.4913 11.5746C14.2725 11.7933 13.976 11.9164 13.6666 11.9167H13.0833V11.3333C13.0836 11.024 13.2066 10.7274 13.4254 10.5087C13.6441 10.29 13.9407 10.167 14.25 10.1667ZM11.3333 11.9167C10.7147 11.9159 10.1217 11.6698 9.68425 11.2324C9.24683 10.795 9.00075 10.2019 8.99998 9.58333V8.99999H9.58331C10.2019 9.00077 10.795 9.24685 11.2324 9.68426C11.6698 10.1217 11.9159 10.7147 11.9166 11.3333V11.9167H11.3333Z" fill="white"/>
</svg>
