<svg width="32" height="32" viewBox="0 0 32 32" fill="none" xmlns="http://www.w3.org/2000/svg">
<circle cx="16" cy="16" r="16" fill="#006A4D"/>
<path d="M22.6314 12.76C22.6314 9.31067 19.978 6.48933 15.556 6.48933C11.134 6.48933 8.70135 9.31067 8.70135 12.76C8.70135 16.2093 9.67469 15.7667 9.67469 17.7133C9.67469 18.4433 8.96669 18.0893 8.96669 19.66C8.96669 21.384 11.3767 21.1413 12.0847 21.848C12.7914 22.556 12.7247 23.8613 12.7247 23.8613C12.7247 23.8613 12.858 24.3913 13.1014 24.236C13.1014 24.236 13.256 24.612 13.4334 24.3907C13.4334 24.3907 13.61 24.766 13.7867 24.4573C13.7867 24.4573 13.964 24.8773 14.2514 24.568C14.2514 24.568 14.538 24.988 14.8714 24.6567C14.8714 24.6567 15.2467 25.01 15.6667 24.7453C16.0867 25.01 16.4627 24.6567 16.4627 24.6567C16.794 24.988 17.0827 24.568 17.0827 24.568C17.3694 24.878 17.5454 24.4573 17.5454 24.4573C17.724 24.7667 17.8987 24.3907 17.8987 24.3907C18.0767 24.612 18.232 24.236 18.232 24.236C18.4747 24.3907 18.6074 23.8607 18.6074 23.8607C18.6074 23.8607 18.5407 22.5567 19.2487 21.8487C19.9567 21.142 22.366 21.3847 22.366 19.66C22.366 18.09 21.6594 18.4433 21.6594 17.7133C21.6594 15.7667 22.6327 16.2093 22.6327 12.76H22.6314ZM12.222 19.328C11.0334 19.518 10.4954 19.1847 10.3654 18.3333C10.0267 16.1147 12.0687 15.756 13.0854 15.878C13.572 15.9367 14.412 16.4527 14.412 17.0947C14.412 18.8193 13.328 19.1513 12.222 19.328ZM16.3074 22.2013C16.0874 22.2013 15.734 21.9147 15.7114 21.384C15.6894 21.9147 15.2914 22.202 15.0714 22.202C14.8494 22.202 14.518 21.982 14.4954 21.4507C14.4734 20.92 15.1807 18.7753 15.69 18.7753C16.198 18.7753 16.906 20.92 16.8834 21.4507C16.8607 21.9813 16.53 22.202 16.308 22.202L16.3074 22.2013ZM20.9074 18.3333C20.778 19.1847 20.2387 19.518 19.05 19.328C17.9447 19.1507 16.8614 18.8193 16.8614 17.0947C16.8614 16.4527 17.7014 15.9367 18.188 15.878C19.2047 15.756 21.248 16.1147 20.908 18.3333H20.9074Z" fill="white"/>
</svg>
