<svg width="24" height="24" viewBox="0 0 24 24" fill="none" xmlns="http://www.w3.org/2000/svg">
<path d="M13.436 11L13.036 13H10.566L10.966 11H13.436ZM6.25 3C5.38805 3 4.5614 3.34241 3.9519 3.9519C3.34241 4.5614 3 5.38805 3 6.25V17.75C3 18.612 3.34241 19.4386 3.9519 20.0481C4.5614 20.6576 5.38805 21 6.25 21H17.75C18.612 21 19.4386 20.6576 20.0481 20.0481C20.6576 19.4386 21 18.612 21 17.75V6.25C21 5.38805 20.6576 4.5614 20.0481 3.9519C19.4386 3.34241 18.612 3 17.75 3H6.25ZM10.898 7.515C11.0929 7.55409 11.2643 7.66895 11.3745 7.83432C11.4848 7.9997 11.5249 8.20208 11.486 8.397L11.266 9.5H13.736L14.016 8.103C14.0607 7.91376 14.1771 7.74926 14.3407 7.6442C14.5043 7.53914 14.7024 7.50174 14.893 7.53987C15.0837 7.578 15.2521 7.6887 15.3627 7.8486C15.4734 8.00851 15.5176 8.20513 15.486 8.397L15.266 9.5H16.25C16.4489 9.5 16.6397 9.57902 16.7803 9.71967C16.921 9.86032 17 10.0511 17 10.25C17 10.4489 16.921 10.6397 16.7803 10.7803C16.6397 10.921 16.4489 11 16.25 11H14.965L14.565 13H15.75C15.9489 13 16.1397 13.079 16.2803 13.2197C16.421 13.3603 16.5 13.5511 16.5 13.75C16.5 13.9489 16.421 14.1397 16.2803 14.2803C16.1397 14.421 15.9489 14.5 15.75 14.5H14.265L13.985 15.898C13.9409 16.0879 13.8245 16.2532 13.6606 16.3587C13.4967 16.4643 13.2981 16.5019 13.1069 16.4635C12.9158 16.4251 12.747 16.3139 12.6366 16.1532C12.5261 15.9926 12.4825 15.7952 12.515 15.603L12.735 14.5H10.265L9.985 15.898C9.94085 16.0879 9.82449 16.2532 9.66057 16.3587C9.49665 16.4643 9.29807 16.5019 9.10691 16.4635C8.91576 16.4251 8.74705 16.3139 8.63655 16.1532C8.52606 15.9926 8.48246 15.7952 8.515 15.603L8.735 14.5H7.75C7.55109 14.5 7.36032 14.421 7.21967 14.2803C7.07902 14.1397 7 13.9489 7 13.75C7 13.5511 7.07902 13.3603 7.21967 13.2197C7.36032 13.079 7.55109 13 7.75 13H9.036L9.436 11H8.25C8.05109 11 7.86032 10.921 7.71967 10.7803C7.57902 10.6397 7.5 10.4489 7.5 10.25C7.5 10.0511 7.57902 9.86032 7.71967 9.71967C7.86032 9.57902 8.05109 9.5 8.25 9.5H9.736L10.016 8.103C10.0551 7.90812 10.1699 7.73674 10.3353 7.62648C10.5007 7.51623 10.7031 7.47614 10.898 7.515Z" fill="#006A4D"/>
</svg>
